<svg id="Capa_1" enable-background="new 0 0 512 512" height="512" viewBox="0 0 512 512" width="512" xmlns="http://www.w3.org/2000/svg"><path d="m428.033 256.025 80.754-103.174c7.68-9.809.689-24.244-11.811-24.244h-160.983v-40.425c0-8.284-6.716-14.999-15-14.999h-222.566c3.071-6.675 4.697-13.993 4.697-21.567 0-45.691-55.576-68.937-88.04-36.475-27.259 27.259-16.052 74.474 21.475 85.814v381.047h-19.744c-8.284 0-15 6.716-15 14.999s6.716 15 15 15h69.486c8.284 0 15-6.716 15-15s-6.716-14.999-15-14.999h-19.743v-153.983h239.436v40.425c0 8.284 6.716 15 15 15h175.982c12.458 0 19.517-14.402 11.811-24.244zm-398.041-204.409c0-5.776 2.239-11.197 6.304-15.261 0-.001 0-.001 0-.001 8.414-8.414 22.109-8.417 30.524.001 8.414 8.412 8.413 22.11 0 30.522-13.481 13.485-36.828 3.947-36.828-15.261zm36.566 246.404v-194.838h239.436v194.838zm269.435 55.425c0-7.162 0-186.025 0-194.839h130.195l-69.014 88.175c-4.251 5.43-4.251 13.059 0 18.49l69.014 88.175h-130.195z"/></svg>